<svg xmlns="http://www.w3.org/2000/svg" xmlns:xlink="http://www.w3.org/1999/xlink" width="448" zoomAndPan="magnify" viewBox="0 0 336 112.499997" height="150" preserveAspectRatio="xMidYMid meet" version="1.0"><defs><g/><clipPath id="d590c38d66"><path d="M 0.078125 0.0546875 L 226 0.0546875 L 226 80.097656 L 0.078125 80.097656 Z M 0.078125 0.0546875 " clip-rule="nonzero"/></clipPath><clipPath id="a539d0f811"><rect x="0" width="226" y="0" height="81"/></clipPath><clipPath id="5da0b39833"><path d="M 234 34 L 310.9375 34 L 310.9375 72 L 234 72 Z M 234 34 " clip-rule="nonzero"/></clipPath><clipPath id="cd1c95642f"><rect x="0" width="77" y="0" height="38"/></clipPath><clipPath id="96f72a28ad"><rect x="0" width="311" y="0" height="81"/></clipPath></defs><g transform="matrix(1, 0, 0, 1, 15, 15)"><g clip-path="url(#96f72a28ad)"><g clip-path="url(#d590c38d66)"><g><g clip-path="url(#a539d0f811)"><g fill="#059669" fill-opacity="1"><g transform="translate(1.089155, 63.890304)"><g><path d="M 15.21875 0.640625 C 12.78125 0.640625 10.519531 0.148438 8.4375 -0.828125 C 6.351562 -1.804688 4.648438 -3.210938 3.328125 -5.046875 C 2.816406 -5.816406 2.5625 -6.5625 2.5625 -7.28125 C 2.5625 -8.351562 2.972656 -9.25 3.796875 -9.96875 C 4.628906 -10.695312 5.453125 -11.0625 6.265625 -11.0625 C 6.898438 -11.0625 7.523438 -10.867188 8.140625 -10.484375 C 8.765625 -10.097656 9.332031 -9.648438 9.84375 -9.140625 C 10.695312 -8.367188 11.535156 -7.820312 12.359375 -7.5 C 13.191406 -7.1875 14.144531 -7.03125 15.21875 -7.03125 C 16.488281 -7.03125 17.675781 -7.347656 18.78125 -7.984375 C 19.894531 -8.628906 20.789062 -9.484375 21.46875 -10.546875 C 22.15625 -11.609375 22.5 -12.757812 22.5 -14 L 22.5 -40.84375 C 22.5 -41.957031 22.898438 -42.882812 23.703125 -43.625 C 24.515625 -44.375 25.457031 -44.75 26.53125 -44.75 C 27.71875 -44.75 28.671875 -44.375 29.390625 -43.625 C 30.117188 -42.882812 30.484375 -41.957031 30.484375 -40.84375 L 30.484375 -14 C 30.484375 -11.394531 29.800781 -8.984375 28.4375 -6.765625 C 27.082031 -4.554688 25.253906 -2.769531 22.953125 -1.40625 C 20.648438 -0.0390625 18.070312 0.640625 15.21875 0.640625 Z M 15.21875 0.640625 "/></g></g></g><g fill="#059669" fill-opacity="1"><g transform="translate(29.849836, 63.890304)"><g><path d="M 29.53125 -34.203125 C 30.632812 -34.203125 31.550781 -33.828125 32.28125 -33.078125 C 33.007812 -32.335938 33.375 -31.410156 33.375 -30.296875 L 33.375 -14.0625 C 33.375 -9.539062 32.113281 -5.957031 29.59375 -3.3125 C 27.082031 -0.675781 23.460938 0.640625 18.734375 0.640625 C 14.003906 0.640625 10.390625 -0.675781 7.890625 -3.3125 C 5.398438 -5.957031 4.15625 -9.539062 4.15625 -14.0625 L 4.15625 -30.296875 C 4.15625 -31.410156 4.515625 -32.335938 5.234375 -33.078125 C 5.960938 -33.828125 6.878906 -34.203125 7.984375 -34.203125 C 9.097656 -34.203125 10.015625 -33.828125 10.734375 -33.078125 C 11.460938 -32.335938 11.828125 -31.410156 11.828125 -30.296875 L 11.828125 -14.0625 C 11.828125 -11.457031 12.398438 -9.523438 13.546875 -8.265625 C 14.703125 -7.015625 16.429688 -6.390625 18.734375 -6.390625 C 21.078125 -6.390625 22.820312 -7.015625 23.96875 -8.265625 C 25.125 -9.523438 25.703125 -11.457031 25.703125 -14.0625 L 25.703125 -30.296875 C 25.703125 -31.410156 26.0625 -32.335938 26.78125 -33.078125 C 27.507812 -33.828125 28.425781 -34.203125 29.53125 -34.203125 Z M 29.53125 -34.203125 "/></g></g></g><g fill="#059669" fill-opacity="1"><g transform="translate(60.847548, 63.890304)"><g><path d="M 7.984375 0 C 6.878906 0 5.960938 -0.367188 5.234375 -1.109375 C 4.515625 -1.859375 4.15625 -2.789062 4.15625 -3.90625 L 4.15625 -30.296875 C 4.15625 -31.410156 4.515625 -32.335938 5.234375 -33.078125 C 5.960938 -33.828125 6.878906 -34.203125 7.984375 -34.203125 C 9.097656 -34.203125 10.015625 -33.828125 10.734375 -33.078125 C 11.460938 -32.335938 11.828125 -31.410156 11.828125 -30.296875 L 11.828125 -24.296875 L 11.375 -28.578125 C 11.84375 -29.597656 12.445312 -30.5 13.1875 -31.28125 C 13.9375 -32.070312 14.78125 -32.734375 15.71875 -33.265625 C 16.65625 -33.804688 17.65625 -34.203125 18.71875 -34.453125 C 19.789062 -34.710938 20.859375 -34.84375 21.921875 -34.84375 C 23.203125 -34.84375 24.28125 -34.476562 25.15625 -33.75 C 26.03125 -33.03125 26.46875 -32.175781 26.46875 -31.1875 C 26.46875 -29.78125 26.101562 -28.769531 25.375 -28.15625 C 24.65625 -27.539062 23.867188 -27.234375 23.015625 -27.234375 C 22.203125 -27.234375 21.460938 -27.378906 20.796875 -27.671875 C 20.140625 -27.972656 19.382812 -28.125 18.53125 -28.125 C 17.769531 -28.125 16.992188 -27.941406 16.203125 -27.578125 C 15.410156 -27.210938 14.6875 -26.644531 14.03125 -25.875 C 13.375 -25.113281 12.84375 -24.164062 12.4375 -23.03125 C 12.03125 -21.90625 11.828125 -20.578125 11.828125 -19.046875 L 11.828125 -3.90625 C 11.828125 -2.789062 11.460938 -1.859375 10.734375 -1.109375 C 10.015625 -0.367188 9.097656 0 7.984375 0 Z M 7.984375 0 "/></g></g></g><g fill="#059669" fill-opacity="1"><g transform="translate(82.066234, 63.890304)"><g><path d="M 29.53125 -34.203125 C 30.632812 -34.203125 31.550781 -33.828125 32.28125 -33.078125 C 33.007812 -32.335938 33.375 -31.410156 33.375 -30.296875 L 33.375 -14.0625 C 33.375 -9.539062 32.113281 -5.957031 29.59375 -3.3125 C 27.082031 -0.675781 23.460938 0.640625 18.734375 0.640625 C 14.003906 0.640625 10.390625 -0.675781 7.890625 -3.3125 C 5.398438 -5.957031 4.15625 -9.539062 4.15625 -14.0625 L 4.15625 -30.296875 C 4.15625 -31.410156 4.515625 -32.335938 5.234375 -33.078125 C 5.960938 -33.828125 6.878906 -34.203125 7.984375 -34.203125 C 9.097656 -34.203125 10.015625 -33.828125 10.734375 -33.078125 C 11.460938 -32.335938 11.828125 -31.410156 11.828125 -30.296875 L 11.828125 -14.0625 C 11.828125 -11.457031 12.398438 -9.523438 13.546875 -8.265625 C 14.703125 -7.015625 16.429688 -6.390625 18.734375 -6.390625 C 21.078125 -6.390625 22.820312 -7.015625 23.96875 -8.265625 C 25.125 -9.523438 25.703125 -11.457031 25.703125 -14.0625 L 25.703125 -30.296875 C 25.703125 -31.410156 26.0625 -32.335938 26.78125 -33.078125 C 27.507812 -33.828125 28.425781 -34.203125 29.53125 -34.203125 Z M 29.53125 -34.203125 "/></g></g></g><g fill="#059669" fill-opacity="1"><g transform="translate(113.063946, 63.890304)"><g><path d="M 43.53125 -34.203125 C 44.507812 -34.203125 45.359375 -33.828125 46.078125 -33.078125 C 46.804688 -32.335938 47.171875 -31.390625 47.171875 -30.234375 C 47.171875 -29.929688 47.148438 -29.660156 47.109375 -29.421875 C 47.066406 -29.191406 47.003906 -28.972656 46.921875 -28.765625 L 37.140625 -2.421875 C 36.835938 -1.578125 36.300781 -0.929688 35.53125 -0.484375 C 34.769531 -0.0351562 33.960938 0.125 33.109375 0 C 31.660156 -0.0820312 30.570312 -0.890625 29.84375 -2.421875 L 23.515625 -20.640625 L 25.1875 -20.578125 L 19.234375 -2.421875 C 18.515625 -0.890625 17.429688 -0.0820312 15.984375 0 C 15.171875 0.125 14.367188 -0.0351562 13.578125 -0.484375 C 12.796875 -0.929688 12.253906 -1.578125 11.953125 -2.421875 L 2.171875 -28.765625 C 2.003906 -29.234375 1.921875 -29.722656 1.921875 -30.234375 C 1.921875 -31.253906 2.257812 -32.171875 2.9375 -32.984375 C 3.625 -33.796875 4.5625 -34.203125 5.75 -34.203125 C 6.5625 -34.203125 7.285156 -34.007812 7.921875 -33.625 C 8.566406 -33.238281 9.015625 -32.617188 9.265625 -31.765625 L 17 -10.796875 L 15.40625 -10.9375 L 21.21875 -26.71875 C 21.90625 -28.289062 23.078125 -29.078125 24.734375 -29.078125 C 25.671875 -29.078125 26.382812 -28.875 26.875 -28.46875 C 27.363281 -28.070312 27.757812 -27.488281 28.0625 -26.71875 L 33.875 -10.9375 L 31.96875 -10.671875 L 39.828125 -31.765625 C 40.335938 -33.390625 41.570312 -34.203125 43.53125 -34.203125 Z M 43.53125 -34.203125 "/></g></g></g><g fill="#059669" fill-opacity="1"><g transform="translate(155.630315, 63.890304)"><g><path d="M 20.265625 0.640625 C 16.640625 0.640625 13.492188 -0.113281 10.828125 -1.625 C 8.171875 -3.144531 6.128906 -5.203125 4.703125 -7.796875 C 3.273438 -10.398438 2.5625 -13.34375 2.5625 -16.625 C 2.5625 -20.457031 3.335938 -23.722656 4.890625 -26.421875 C 6.441406 -29.128906 8.472656 -31.207031 10.984375 -32.65625 C 13.503906 -34.113281 16.171875 -34.84375 18.984375 -34.84375 C 21.160156 -34.84375 23.21875 -34.394531 25.15625 -33.5 C 27.09375 -32.601562 28.804688 -31.375 30.296875 -29.8125 C 31.785156 -28.257812 32.96875 -26.457031 33.84375 -24.40625 C 34.71875 -22.363281 35.15625 -20.191406 35.15625 -17.890625 C 35.113281 -16.867188 34.707031 -16.039062 33.9375 -15.40625 C 33.175781 -14.769531 32.285156 -14.453125 31.265625 -14.453125 L 6.84375 -14.453125 L 4.921875 -20.84375 L 28.375 -20.84375 L 26.96875 -19.5625 L 26.96875 -21.28125 C 26.882812 -22.519531 26.445312 -23.628906 25.65625 -24.609375 C 24.875 -25.585938 23.894531 -26.363281 22.71875 -26.9375 C 21.550781 -27.519531 20.304688 -27.8125 18.984375 -27.8125 C 17.703125 -27.8125 16.507812 -27.640625 15.40625 -27.296875 C 14.300781 -26.953125 13.34375 -26.375 12.53125 -25.5625 C 11.71875 -24.757812 11.078125 -23.675781 10.609375 -22.3125 C 10.140625 -20.945312 9.90625 -19.21875 9.90625 -17.125 C 9.90625 -14.820312 10.382812 -12.875 11.34375 -11.28125 C 12.300781 -9.6875 13.535156 -8.472656 15.046875 -7.640625 C 16.566406 -6.804688 18.175781 -6.390625 19.875 -6.390625 C 21.457031 -6.390625 22.71875 -6.515625 23.65625 -6.765625 C 24.59375 -7.023438 25.347656 -7.335938 25.921875 -7.703125 C 26.492188 -8.066406 27.015625 -8.375 27.484375 -8.625 C 28.253906 -9.007812 28.976562 -9.203125 29.65625 -9.203125 C 30.59375 -9.203125 31.367188 -8.878906 31.984375 -8.234375 C 32.609375 -7.597656 32.921875 -6.859375 32.921875 -6.015625 C 32.921875 -4.859375 32.320312 -3.8125 31.125 -2.875 C 30.019531 -1.9375 28.460938 -1.113281 26.453125 -0.40625 C 24.453125 0.289062 22.390625 0.640625 20.265625 0.640625 Z M 20.265625 0.640625 "/></g></g></g><g fill="#059669" fill-opacity="1"><g transform="translate(186.819779, 63.890304)"><g><path d="M 21.859375 -34.84375 C 24.835938 -34.84375 27.507812 -34.082031 29.875 -32.5625 C 32.25 -31.050781 34.128906 -28.972656 35.515625 -26.328125 C 36.898438 -23.691406 37.59375 -20.625 37.59375 -17.125 C 37.59375 -13.632812 36.898438 -10.554688 35.515625 -7.890625 C 34.128906 -5.234375 32.273438 -3.144531 29.953125 -1.625 C 27.628906 -0.113281 25.015625 0.640625 22.109375 0.640625 C 20.410156 0.640625 18.8125 0.363281 17.3125 -0.1875 C 15.820312 -0.738281 14.515625 -1.441406 13.390625 -2.296875 C 12.265625 -3.148438 11.390625 -4.015625 10.765625 -4.890625 C 10.148438 -5.765625 9.84375 -6.5 9.84375 -7.09375 L 11.828125 -7.921875 L 11.828125 -3.265625 C 11.828125 -2.148438 11.460938 -1.21875 10.734375 -0.46875 C 10.015625 0.269531 9.097656 0.640625 7.984375 0.640625 C 6.878906 0.640625 5.960938 0.28125 5.234375 -0.4375 C 4.515625 -1.164062 4.15625 -2.109375 4.15625 -3.265625 L 4.15625 -43.40625 C 4.15625 -44.507812 4.515625 -45.429688 5.234375 -46.171875 C 5.960938 -46.921875 6.878906 -47.296875 7.984375 -47.296875 C 9.097656 -47.296875 10.015625 -46.921875 10.734375 -46.171875 C 11.460938 -45.429688 11.828125 -44.507812 11.828125 -43.40625 L 11.828125 -27.171875 L 10.734375 -27.734375 C 10.734375 -28.296875 11.03125 -28.96875 11.625 -29.75 C 12.226562 -30.539062 13.039062 -31.328125 14.0625 -32.109375 C 15.082031 -32.898438 16.265625 -33.550781 17.609375 -34.0625 C 18.953125 -34.582031 20.367188 -34.84375 21.859375 -34.84375 Z M 20.90625 -27.8125 C 19.03125 -27.8125 17.390625 -27.34375 15.984375 -26.40625 C 14.578125 -25.46875 13.476562 -24.195312 12.6875 -22.59375 C 11.894531 -21 11.5 -19.175781 11.5 -17.125 C 11.5 -15.125 11.894531 -13.300781 12.6875 -11.65625 C 13.476562 -10.019531 14.578125 -8.734375 15.984375 -7.796875 C 17.390625 -6.859375 19.03125 -6.390625 20.90625 -6.390625 C 22.78125 -6.390625 24.410156 -6.859375 25.796875 -7.796875 C 27.179688 -8.734375 28.265625 -10.019531 29.046875 -11.65625 C 29.835938 -13.300781 30.234375 -15.125 30.234375 -17.125 C 30.234375 -19.175781 29.835938 -21 29.046875 -22.59375 C 28.265625 -24.195312 27.179688 -25.46875 25.796875 -26.40625 C 24.410156 -27.34375 22.78125 -27.8125 20.90625 -27.8125 Z M 20.90625 -27.8125 "/></g></g></g></g></g></g><g clip-path="url(#5da0b39833)"><g transform="matrix(1, 0, 0, 1, 234, 34)"><g clip-path="url(#cd1c95642f)"><g fill="#059669" fill-opacity="1"><g transform="translate(1.150227, 29.897998)"><g><path d="M 8.3125 0.296875 C 6.84375 0.304688 5.566406 0.0703125 4.484375 -0.40625 C 3.410156 -0.882812 2.378906 -1.609375 1.390625 -2.578125 C 1.296875 -2.660156 1.210938 -2.757812 1.140625 -2.875 C 1.078125 -2.988281 1.046875 -3.125 1.046875 -3.28125 C 1.046875 -3.507812 1.132812 -3.71875 1.3125 -3.90625 C 1.5 -4.101562 1.707031 -4.203125 1.9375 -4.203125 C 2.175781 -4.203125 2.390625 -4.101562 2.578125 -3.90625 C 3.328125 -3.101562 4.179688 -2.488281 5.140625 -2.0625 C 6.097656 -1.632812 7.128906 -1.421875 8.234375 -1.421875 C 9.160156 -1.421875 9.984375 -1.566406 10.703125 -1.859375 C 11.429688 -2.148438 12.007812 -2.5625 12.4375 -3.09375 C 12.863281 -3.632812 13.078125 -4.265625 13.078125 -4.984375 C 13.078125 -5.867188 12.832031 -6.585938 12.34375 -7.140625 C 11.863281 -7.691406 11.226562 -8.144531 10.4375 -8.5 C 9.644531 -8.863281 8.765625 -9.191406 7.796875 -9.484375 C 7.003906 -9.710938 6.25 -9.972656 5.53125 -10.265625 C 4.820312 -10.566406 4.1875 -10.9375 3.625 -11.375 C 3.0625 -11.8125 2.625 -12.347656 2.3125 -12.984375 C 2.007812 -13.617188 1.859375 -14.390625 1.859375 -15.296875 C 1.859375 -16.328125 2.128906 -17.238281 2.671875 -18.03125 C 3.210938 -18.820312 3.976562 -19.441406 4.96875 -19.890625 C 5.96875 -20.347656 7.125 -20.578125 8.4375 -20.578125 C 9.570312 -20.578125 10.664062 -20.382812 11.71875 -20 C 12.769531 -19.613281 13.609375 -19.046875 14.234375 -18.296875 C 14.523438 -17.984375 14.671875 -17.703125 14.671875 -17.453125 C 14.671875 -17.253906 14.570312 -17.054688 14.375 -16.859375 C 14.1875 -16.671875 13.972656 -16.578125 13.734375 -16.578125 C 13.546875 -16.578125 13.382812 -16.644531 13.25 -16.78125 C 12.914062 -17.1875 12.5 -17.546875 12 -17.859375 C 11.5 -18.179688 10.941406 -18.429688 10.328125 -18.609375 C 9.722656 -18.785156 9.09375 -18.875 8.4375 -18.875 C 7.53125 -18.875 6.710938 -18.734375 5.984375 -18.453125 C 5.253906 -18.171875 4.679688 -17.769531 4.265625 -17.25 C 3.859375 -16.726562 3.65625 -16.097656 3.65625 -15.359375 C 3.65625 -14.546875 3.882812 -13.878906 4.34375 -13.359375 C 4.8125 -12.835938 5.421875 -12.40625 6.171875 -12.0625 C 6.921875 -11.726562 7.722656 -11.414062 8.578125 -11.125 C 9.410156 -10.894531 10.207031 -10.628906 10.96875 -10.328125 C 11.726562 -10.035156 12.40625 -9.664062 13 -9.21875 C 13.59375 -8.769531 14.054688 -8.207031 14.390625 -7.53125 C 14.722656 -6.851562 14.890625 -6.003906 14.890625 -4.984375 C 14.890625 -3.992188 14.609375 -3.101562 14.046875 -2.3125 C 13.492188 -1.519531 12.726562 -0.890625 11.75 -0.421875 C 10.78125 0.0351562 9.632812 0.273438 8.3125 0.296875 Z M 8.3125 0.296875 "/></g></g></g><g fill="#059669" fill-opacity="1"><g transform="translate(15.835972, 29.897998)"><g><path d="M 1.328125 -14.75 L 8.09375 -14.75 C 8.320312 -14.75 8.507812 -14.664062 8.65625 -14.5 C 8.8125 -14.34375 8.890625 -14.144531 8.890625 -13.90625 C 8.890625 -13.695312 8.8125 -13.515625 8.65625 -13.359375 C 8.507812 -13.203125 8.320312 -13.125 8.09375 -13.125 L 1.328125 -13.125 C 1.097656 -13.125 0.898438 -13.207031 0.734375 -13.375 C 0.578125 -13.539062 0.5 -13.726562 0.5 -13.9375 C 0.5 -14.175781 0.578125 -14.367188 0.734375 -14.515625 C 0.898438 -14.671875 1.097656 -14.75 1.328125 -14.75 Z M 4.3125 -18.84375 C 4.570312 -18.84375 4.78125 -18.753906 4.9375 -18.578125 C 5.101562 -18.398438 5.1875 -18.195312 5.1875 -17.96875 L 5.1875 -3.421875 C 5.1875 -2.878906 5.257812 -2.472656 5.40625 -2.203125 C 5.550781 -1.929688 5.738281 -1.75 5.96875 -1.65625 C 6.195312 -1.570312 6.429688 -1.53125 6.671875 -1.53125 C 6.816406 -1.53125 6.953125 -1.554688 7.078125 -1.609375 C 7.210938 -1.660156 7.351562 -1.6875 7.5 -1.6875 C 7.675781 -1.6875 7.828125 -1.617188 7.953125 -1.484375 C 8.078125 -1.347656 8.140625 -1.171875 8.140625 -0.953125 C 8.140625 -0.679688 7.984375 -0.453125 7.671875 -0.265625 C 7.367188 -0.0859375 7.003906 0 6.578125 0 C 6.398438 0 6.140625 -0.015625 5.796875 -0.046875 C 5.453125 -0.078125 5.09375 -0.179688 4.71875 -0.359375 C 4.351562 -0.546875 4.050781 -0.867188 3.8125 -1.328125 C 3.570312 -1.796875 3.453125 -2.460938 3.453125 -3.328125 L 3.453125 -17.96875 C 3.453125 -18.195312 3.53125 -18.398438 3.6875 -18.578125 C 3.851562 -18.753906 4.0625 -18.84375 4.3125 -18.84375 Z M 4.3125 -18.84375 "/></g></g></g><g fill="#059669" fill-opacity="1"><g transform="translate(24.061717, 29.897998)"><g><path d="M 13.359375 -14.71875 C 13.609375 -14.71875 13.816406 -14.628906 13.984375 -14.453125 C 14.148438 -14.285156 14.234375 -14.085938 14.234375 -13.859375 L 14.234375 -5.6875 C 14.234375 -3.769531 13.691406 -2.304688 12.609375 -1.296875 C 11.523438 -0.296875 10.066406 0.203125 8.234375 0.203125 C 6.410156 0.203125 4.960938 -0.296875 3.890625 -1.296875 C 2.828125 -2.304688 2.296875 -3.769531 2.296875 -5.6875 L 2.296875 -13.859375 C 2.296875 -14.085938 2.375 -14.285156 2.53125 -14.453125 C 2.695312 -14.628906 2.90625 -14.71875 3.15625 -14.71875 C 3.40625 -14.71875 3.613281 -14.628906 3.78125 -14.453125 C 3.945312 -14.285156 4.03125 -14.085938 4.03125 -13.859375 L 4.03125 -5.6875 C 4.03125 -4.289062 4.398438 -3.226562 5.140625 -2.5 C 5.890625 -1.78125 6.921875 -1.421875 8.234375 -1.421875 C 9.566406 -1.421875 10.609375 -1.78125 11.359375 -2.5 C 12.117188 -3.226562 12.5 -4.289062 12.5 -5.6875 L 12.5 -13.859375 C 12.5 -14.085938 12.570312 -14.285156 12.71875 -14.453125 C 12.875 -14.628906 13.085938 -14.71875 13.359375 -14.71875 Z M 13.359375 -14.71875 "/></g></g></g><g fill="#059669" fill-opacity="1"><g transform="translate(38.950241, 29.897998)"><g><path d="M 14.4375 -21.453125 C 14.6875 -21.453125 14.890625 -21.367188 15.046875 -21.203125 C 15.210938 -21.035156 15.296875 -20.828125 15.296875 -20.578125 L 15.296875 -0.875 C 15.296875 -0.632812 15.207031 -0.425781 15.03125 -0.25 C 14.863281 -0.0820312 14.664062 0 14.4375 0 C 14.1875 0 13.976562 -0.0820312 13.8125 -0.25 C 13.644531 -0.425781 13.5625 -0.632812 13.5625 -0.875 L 13.5625 -4.3125 L 14.0625 -4.71875 C 14.0625 -4.175781 13.914062 -3.609375 13.625 -3.015625 C 13.332031 -2.429688 12.921875 -1.890625 12.390625 -1.390625 C 11.859375 -0.890625 11.238281 -0.484375 10.53125 -0.171875 C 9.832031 0.140625 9.078125 0.296875 8.265625 0.296875 C 6.960938 0.296875 5.796875 -0.0390625 4.765625 -0.71875 C 3.734375 -1.394531 2.914062 -2.3125 2.3125 -3.46875 C 1.71875 -4.632812 1.421875 -5.960938 1.421875 -7.453125 C 1.421875 -8.921875 1.71875 -10.238281 2.3125 -11.40625 C 2.914062 -12.570312 3.726562 -13.488281 4.75 -14.15625 C 5.78125 -14.820312 6.941406 -15.15625 8.234375 -15.15625 C 9.023438 -15.15625 9.773438 -15.007812 10.484375 -14.71875 C 11.203125 -14.4375 11.835938 -14.039062 12.390625 -13.53125 C 12.941406 -13.03125 13.375 -12.457031 13.6875 -11.8125 C 14.007812 -11.164062 14.171875 -10.492188 14.171875 -9.796875 L 13.5625 -10.234375 L 13.5625 -20.578125 C 13.5625 -20.804688 13.644531 -21.007812 13.8125 -21.1875 C 13.976562 -21.363281 14.1875 -21.453125 14.4375 -21.453125 Z M 8.40625 -1.328125 C 9.445312 -1.328125 10.359375 -1.59375 11.140625 -2.125 C 11.921875 -2.65625 12.539062 -3.378906 13 -4.296875 C 13.457031 -5.222656 13.6875 -6.273438 13.6875 -7.453125 C 13.6875 -8.609375 13.457031 -9.644531 13 -10.5625 C 12.539062 -11.476562 11.914062 -12.203125 11.125 -12.734375 C 10.332031 -13.265625 9.425781 -13.53125 8.40625 -13.53125 C 7.394531 -13.53125 6.488281 -13.265625 5.6875 -12.734375 C 4.894531 -12.203125 4.269531 -11.476562 3.8125 -10.5625 C 3.351562 -9.644531 3.125 -8.609375 3.125 -7.453125 C 3.125 -6.285156 3.351562 -5.238281 3.8125 -4.3125 C 4.269531 -3.382812 4.894531 -2.65625 5.6875 -2.125 C 6.488281 -1.59375 7.394531 -1.328125 8.40625 -1.328125 Z M 8.40625 -1.328125 "/></g></g></g><g fill="#059669" fill-opacity="1"><g transform="translate(54.910599, 29.897998)"><g><path d="M 3.96875 -0.875 C 3.96875 -0.632812 3.878906 -0.425781 3.703125 -0.25 C 3.535156 -0.0820312 3.332031 0 3.09375 0 C 2.84375 0 2.632812 -0.0820312 2.46875 -0.25 C 2.3125 -0.425781 2.234375 -0.632812 2.234375 -0.875 L 2.234375 -14.203125 C 2.234375 -14.429688 2.3125 -14.632812 2.46875 -14.8125 C 2.632812 -14.988281 2.84375 -15.078125 3.09375 -15.078125 C 3.351562 -15.078125 3.5625 -14.988281 3.71875 -14.8125 C 3.882812 -14.632812 3.96875 -14.429688 3.96875 -14.203125 Z M 3.109375 -17.015625 C 2.703125 -17.015625 2.394531 -17.101562 2.1875 -17.28125 C 1.988281 -17.46875 1.890625 -17.734375 1.890625 -18.078125 L 1.890625 -18.375 C 1.890625 -18.71875 2 -18.984375 2.21875 -19.171875 C 2.4375 -19.359375 2.742188 -19.453125 3.140625 -19.453125 C 3.503906 -19.453125 3.785156 -19.359375 3.984375 -19.171875 C 4.191406 -18.984375 4.296875 -18.71875 4.296875 -18.375 L 4.296875 -18.078125 C 4.296875 -17.734375 4.191406 -17.46875 3.984375 -17.28125 C 3.785156 -17.101562 3.492188 -17.015625 3.109375 -17.015625 Z M 3.109375 -17.015625 "/></g></g></g><g fill="#059669" fill-opacity="1"><g transform="translate(59.515286, 29.897998)"><g><path d="M 16.09375 -7.421875 C 16.09375 -5.953125 15.769531 -4.628906 15.125 -3.453125 C 14.488281 -2.285156 13.617188 -1.367188 12.515625 -0.703125 C 11.421875 -0.0351562 10.164062 0.296875 8.75 0.296875 C 7.382812 0.296875 6.144531 -0.0351562 5.03125 -0.703125 C 3.914062 -1.367188 3.035156 -2.285156 2.390625 -3.453125 C 1.742188 -4.628906 1.421875 -5.953125 1.421875 -7.421875 C 1.421875 -8.910156 1.742188 -10.234375 2.390625 -11.390625 C 3.035156 -12.546875 3.914062 -13.460938 5.03125 -14.140625 C 6.144531 -14.816406 7.382812 -15.15625 8.75 -15.15625 C 10.164062 -15.15625 11.421875 -14.816406 12.515625 -14.140625 C 13.617188 -13.460938 14.488281 -12.546875 15.125 -11.390625 C 15.769531 -10.234375 16.09375 -8.910156 16.09375 -7.421875 Z M 14.34375 -7.421875 C 14.34375 -8.597656 14.097656 -9.644531 13.609375 -10.5625 C 13.128906 -11.476562 12.46875 -12.203125 11.625 -12.734375 C 10.789062 -13.265625 9.832031 -13.53125 8.75 -13.53125 C 7.707031 -13.53125 6.757812 -13.265625 5.90625 -12.734375 C 5.0625 -12.203125 4.390625 -11.476562 3.890625 -10.5625 C 3.398438 -9.644531 3.15625 -8.597656 3.15625 -7.421875 C 3.15625 -6.242188 3.398438 -5.195312 3.890625 -4.28125 C 4.390625 -3.375 5.0625 -2.65625 5.90625 -2.125 C 6.757812 -1.59375 7.707031 -1.328125 8.75 -1.328125 C 9.832031 -1.328125 10.789062 -1.59375 11.625 -2.125 C 12.46875 -2.65625 13.128906 -3.375 13.609375 -4.28125 C 14.097656 -5.195312 14.34375 -6.242188 14.34375 -7.421875 Z M 14.34375 -7.421875 "/></g></g></g></g></g></g></g></g></svg>